<svg xmlns="http://www.w3.org/2000/svg" width="735" height="318" fill="none"><path stroke="#D9D9D9" stroke-linejoin="round" stroke-width="1.4" d="m60.757 29.499 98.613-14.854c42.461-6.396 84.487 13.962 105.79 51.245l24.503 42.885c21.055 36.85 62.39 57.209 104.437 51.44l191.365-26.258c44.304-6.079 87.533 16.845 107.359 56.929l36.934 74.678"/><path stroke="#D9D9D9" stroke-linejoin="round" stroke-width="1.4" d="m32.392 54.993 98.613-14.854c42.461-6.396 84.488 13.962 105.79 51.246l24.503 42.884c21.055 36.85 62.39 57.209 104.437 51.44L557.1 159.452c44.304-6.079 87.534 16.844 107.359 56.928l36.934 74.678"/><path stroke="#D9D9D9" stroke-linejoin="round" stroke-width="1.4" d="m4.027 80.487 98.613-14.853c42.461-6.396 84.488 13.962 105.79 51.245l24.503 42.884c21.055 36.85 62.39 57.209 104.437 51.44l191.365-26.257c44.304-6.079 87.534 16.844 107.359 56.929l36.934 74.678"/></svg>