<svg xmlns="http://www.w3.org/2000/svg" width="203" height="204" fill="none"><g filter="url(#a)"><path fill="url(#b)" d="M40.74 84.41c-4.586-5.803-.945-14.38 6.414-15.112 5.459-.543 9.282-5.644 8.27-11.036-1.364-7.269 5.846-13.172 12.702-10.4 5.086 2.057 10.842-.684 12.451-5.928 2.17-7.07 11.298-8.946 16.08-3.306 3.548 4.185 9.918 4.433 13.781.537 5.207-5.251 14.161-2.67 15.774 4.546 1.197 5.354 6.722 8.534 11.953 6.88 7.051-2.23 13.78 4.215 11.855 11.356-1.429 5.296 1.986 10.68 7.386 11.646 7.28 1.302 10.242 10.137 5.219 15.564-3.726 4.026-3.204 10.38 1.128 13.745 5.841 4.536 4.359 13.736-2.611 16.207-5.171 1.834-7.661 7.702-5.389 12.694 3.064 6.731-2.524 14.188-9.844 13.138-5.43-.78-10.363 3.259-10.671 8.736-.415 7.384-8.828 11.39-14.822 7.057-4.446-3.213-10.69-1.93-13.508 2.777-3.799 6.345-13.11 5.982-16.404-.639-2.443-4.912-8.569-6.677-13.251-3.819-6.313 3.853-14.39-.795-14.228-8.189.119-5.485-4.485-9.894-9.96-9.54-7.379.478-12.37-7.391-8.792-13.863 2.654-4.801.628-10.845-4.384-13.075-6.757-3.006-7.52-12.294-1.343-16.362 4.581-3.017 5.595-9.31 2.194-13.615"/></g><defs><linearGradient id="b" x1="153.132" x2="112.584" y1="39.419" y2="149.618" gradientUnits="userSpaceOnUse"><stop stop-color="#237249"/><stop offset="1" stop-color="#35C66B"/></linearGradient><filter id="a" width="177.62" height="177.324" x="8.201" y="26.095" color-interpolation-filters="sRGB" filterUnits="userSpaceOnUse"><feFlood flood-opacity="0" result="BackgroundImageFix"/><feColorMatrix in="SourceAlpha" result="hardAlpha" values="0 0 0 0 0 0 0 0 0 0 0 0 0 0 0 0 0 0 127 0"/><feOffset dx="-3.843" dy="13.067"/><feGaussianBlur stdDeviation="11.145"/><feComposite in2="hardAlpha" operator="out"/><feColorMatrix values="0 0 0 0 0.0775104 0 0 0 0 0.241623 0 0 0 0 0.157958 0 0 0 0.46 0"/><feBlend in2="BackgroundImageFix" result="effect1_dropShadow_62_3"/><feBlend in="SourceGraphic" in2="effect1_dropShadow_62_3" result="shape"/></filter></defs></svg>